<mxfile host="app.diagrams.net" modified="2023-04-24T18:46:55.318Z" agent="Mozilla/5.0 (Windows NT 10.0; Win64; x64) AppleWebKit/537.36 (KHTML, like Gecko) Chrome/112.0.0.0 Safari/537.36" etag="e00IBsQBCNoD30-USMJm" version="21.2.1" type="github">
  <diagram name="Page-1" id="74e2e168-ea6b-b213-b513-2b3c1d86103e">
    <mxGraphModel dx="2269" dy="1320" grid="1" gridSize="10" guides="1" tooltips="1" connect="1" arrows="1" fold="1" page="1" pageScale="1" pageWidth="1100" pageHeight="850" background="none" math="0" shadow="0">
      <root>
        <mxCell id="0" />
        <mxCell id="1" parent="0" />
        <mxCell id="77e6c97f196da883-1" value="Flowchart" style="swimlane;html=1;childLayout=stackLayout;startSize=20;rounded=0;shadow=0;labelBackgroundColor=none;strokeWidth=1;fontFamily=Verdana;fontSize=8;align=center;" parent="1" vertex="1">
          <mxGeometry x="70" y="60" width="2020" height="2520" as="geometry" />
        </mxCell>
        <mxCell id="77e6c97f196da883-2" value="Sistem" style="swimlane;html=1;startSize=20;" parent="77e6c97f196da883-1" vertex="1">
          <mxGeometry y="20" width="420" height="2500" as="geometry" />
        </mxCell>
        <mxCell id="h4zUDWaWfcr6ESv8l4KY-18" style="edgeStyle=orthogonalEdgeStyle;rounded=0;orthogonalLoop=1;jettySize=auto;html=1;" edge="1" parent="77e6c97f196da883-2" source="h4zUDWaWfcr6ESv8l4KY-1" target="h4zUDWaWfcr6ESv8l4KY-2">
          <mxGeometry relative="1" as="geometry" />
        </mxCell>
        <mxCell id="h4zUDWaWfcr6ESv8l4KY-1" value="Start" style="html=1;dashed=0;whiteSpace=wrap;shape=mxgraph.dfd.start" vertex="1" parent="77e6c97f196da883-2">
          <mxGeometry x="122.5" y="30" width="150" height="60" as="geometry" />
        </mxCell>
        <mxCell id="h4zUDWaWfcr6ESv8l4KY-2" value="Home" style="shape=parallelogram;perimeter=parallelogramPerimeter;whiteSpace=wrap;html=1;fixedSize=1;" vertex="1" parent="77e6c97f196da883-2">
          <mxGeometry x="97.5" y="200" width="200" height="110" as="geometry" />
        </mxCell>
        <mxCell id="h4zUDWaWfcr6ESv8l4KY-67" style="edgeStyle=orthogonalEdgeStyle;rounded=0;orthogonalLoop=1;jettySize=auto;html=1;entryX=0.5;entryY=0.5;entryDx=0;entryDy=-25;entryPerimeter=0;" edge="1" parent="77e6c97f196da883-2" source="h4zUDWaWfcr6ESv8l4KY-47" target="h4zUDWaWfcr6ESv8l4KY-52">
          <mxGeometry relative="1" as="geometry" />
        </mxCell>
        <mxCell id="h4zUDWaWfcr6ESv8l4KY-47" value="home" style="shape=parallelogram;perimeter=parallelogramPerimeter;whiteSpace=wrap;html=1;fixedSize=1;" vertex="1" parent="77e6c97f196da883-2">
          <mxGeometry x="50" y="1710" width="160" height="100" as="geometry" />
        </mxCell>
        <mxCell id="h4zUDWaWfcr6ESv8l4KY-52" value="end" style="html=1;dashed=0;whiteSpace=wrap;shape=mxgraph.dfd.start" vertex="1" parent="77e6c97f196da883-2">
          <mxGeometry x="55" y="1890" width="150" height="50" as="geometry" />
        </mxCell>
        <mxCell id="h4zUDWaWfcr6ESv8l4KY-62" style="edgeStyle=orthogonalEdgeStyle;rounded=0;orthogonalLoop=1;jettySize=auto;html=1;entryX=0;entryY=0.5;entryDx=0;entryDy=0;" edge="1" parent="77e6c97f196da883-1" source="h4zUDWaWfcr6ESv8l4KY-2" target="h4zUDWaWfcr6ESv8l4KY-4">
          <mxGeometry relative="1" as="geometry">
            <Array as="points">
              <mxPoint x="197" y="405" />
            </Array>
          </mxGeometry>
        </mxCell>
        <mxCell id="h4zUDWaWfcr6ESv8l4KY-66" style="edgeStyle=orthogonalEdgeStyle;rounded=0;orthogonalLoop=1;jettySize=auto;html=1;" edge="1" parent="77e6c97f196da883-1" source="h4zUDWaWfcr6ESv8l4KY-45" target="h4zUDWaWfcr6ESv8l4KY-47">
          <mxGeometry relative="1" as="geometry">
            <Array as="points">
              <mxPoint x="670" y="1680" />
              <mxPoint x="130" y="1680" />
            </Array>
          </mxGeometry>
        </mxCell>
        <mxCell id="h4zUDWaWfcr6ESv8l4KY-68" style="edgeStyle=orthogonalEdgeStyle;rounded=0;orthogonalLoop=1;jettySize=auto;html=1;entryX=0.5;entryY=0;entryDx=0;entryDy=0;" edge="1" parent="77e6c97f196da883-1" source="h4zUDWaWfcr6ESv8l4KY-2" target="h4zUDWaWfcr6ESv8l4KY-22">
          <mxGeometry relative="1" as="geometry">
            <Array as="points">
              <mxPoint x="760" y="275" />
              <mxPoint x="760" y="190" />
              <mxPoint x="1310" y="190" />
            </Array>
          </mxGeometry>
        </mxCell>
        <mxCell id="77e6c97f196da883-3" value="User" style="swimlane;html=1;startSize=20;" parent="77e6c97f196da883-1" vertex="1">
          <mxGeometry x="420" y="20" width="750" height="2500" as="geometry" />
        </mxCell>
        <mxCell id="h4zUDWaWfcr6ESv8l4KY-8" style="edgeStyle=orthogonalEdgeStyle;rounded=0;orthogonalLoop=1;jettySize=auto;html=1;entryX=0.5;entryY=0;entryDx=0;entryDy=0;" edge="1" parent="77e6c97f196da883-3" source="h4zUDWaWfcr6ESv8l4KY-4" target="h4zUDWaWfcr6ESv8l4KY-7">
          <mxGeometry relative="1" as="geometry" />
        </mxCell>
        <mxCell id="h4zUDWaWfcr6ESv8l4KY-4" value="view data makanan" style="rhombus;whiteSpace=wrap;html=1;" vertex="1" parent="77e6c97f196da883-3">
          <mxGeometry x="142.5" y="300" width="215" height="170" as="geometry" />
        </mxCell>
        <mxCell id="h4zUDWaWfcr6ESv8l4KY-10" style="edgeStyle=orthogonalEdgeStyle;rounded=0;orthogonalLoop=1;jettySize=auto;html=1;" edge="1" parent="77e6c97f196da883-3" source="h4zUDWaWfcr6ESv8l4KY-7" target="h4zUDWaWfcr6ESv8l4KY-9">
          <mxGeometry relative="1" as="geometry" />
        </mxCell>
        <mxCell id="h4zUDWaWfcr6ESv8l4KY-7" value="data makanan" style="shape=parallelogram;perimeter=parallelogramPerimeter;whiteSpace=wrap;html=1;fixedSize=1;" vertex="1" parent="77e6c97f196da883-3">
          <mxGeometry x="138.75" y="530" width="222.5" height="100" as="geometry" />
        </mxCell>
        <mxCell id="h4zUDWaWfcr6ESv8l4KY-12" style="edgeStyle=orthogonalEdgeStyle;rounded=0;orthogonalLoop=1;jettySize=auto;html=1;entryX=0.5;entryY=0;entryDx=0;entryDy=0;" edge="1" parent="77e6c97f196da883-3" source="h4zUDWaWfcr6ESv8l4KY-9" target="h4zUDWaWfcr6ESv8l4KY-11">
          <mxGeometry relative="1" as="geometry" />
        </mxCell>
        <mxCell id="h4zUDWaWfcr6ESv8l4KY-9" value="melakukan pemesanan" style="rhombus;whiteSpace=wrap;html=1;" vertex="1" parent="77e6c97f196da883-3">
          <mxGeometry x="147.5" y="710" width="205" height="160" as="geometry" />
        </mxCell>
        <mxCell id="h4zUDWaWfcr6ESv8l4KY-63" style="edgeStyle=orthogonalEdgeStyle;rounded=0;orthogonalLoop=1;jettySize=auto;html=1;entryX=0.5;entryY=0;entryDx=0;entryDy=0;" edge="1" parent="77e6c97f196da883-3" source="h4zUDWaWfcr6ESv8l4KY-11" target="h4zUDWaWfcr6ESv8l4KY-13">
          <mxGeometry relative="1" as="geometry" />
        </mxCell>
        <mxCell id="h4zUDWaWfcr6ESv8l4KY-11" value="data pemesanan" style="shape=parallelogram;perimeter=parallelogramPerimeter;whiteSpace=wrap;html=1;fixedSize=1;" vertex="1" parent="77e6c97f196da883-3">
          <mxGeometry x="145" y="940" width="210" height="120" as="geometry" />
        </mxCell>
        <mxCell id="h4zUDWaWfcr6ESv8l4KY-65" style="edgeStyle=orthogonalEdgeStyle;rounded=0;orthogonalLoop=1;jettySize=auto;html=1;entryX=0.5;entryY=0;entryDx=0;entryDy=0;" edge="1" parent="77e6c97f196da883-3" source="h4zUDWaWfcr6ESv8l4KY-15" target="h4zUDWaWfcr6ESv8l4KY-45">
          <mxGeometry relative="1" as="geometry" />
        </mxCell>
        <mxCell id="h4zUDWaWfcr6ESv8l4KY-76" value="" style="edgeStyle=orthogonalEdgeStyle;rounded=0;orthogonalLoop=1;jettySize=auto;html=1;" edge="1" parent="77e6c97f196da883-3" source="h4zUDWaWfcr6ESv8l4KY-15" target="h4zUDWaWfcr6ESv8l4KY-75">
          <mxGeometry relative="1" as="geometry" />
        </mxCell>
        <mxCell id="h4zUDWaWfcr6ESv8l4KY-15" value="data pemesanan" style="shape=parallelogram;perimeter=parallelogramPerimeter;whiteSpace=wrap;html=1;fixedSize=1;" vertex="1" parent="77e6c97f196da883-3">
          <mxGeometry x="150" y="1320" width="200" height="100" as="geometry" />
        </mxCell>
        <mxCell id="h4zUDWaWfcr6ESv8l4KY-64" style="edgeStyle=orthogonalEdgeStyle;rounded=0;orthogonalLoop=1;jettySize=auto;html=1;entryX=0.5;entryY=0;entryDx=0;entryDy=0;" edge="1" parent="77e6c97f196da883-3" source="h4zUDWaWfcr6ESv8l4KY-13" target="h4zUDWaWfcr6ESv8l4KY-15">
          <mxGeometry relative="1" as="geometry" />
        </mxCell>
        <mxCell id="h4zUDWaWfcr6ESv8l4KY-13" value="tambah pesanan" style="rhombus;whiteSpace=wrap;html=1;" vertex="1" parent="77e6c97f196da883-3">
          <mxGeometry x="170" y="1110" width="160" height="135" as="geometry" />
        </mxCell>
        <mxCell id="h4zUDWaWfcr6ESv8l4KY-45" value="back to home" style="rhombus;whiteSpace=wrap;html=1;" vertex="1" parent="77e6c97f196da883-3">
          <mxGeometry x="175" y="1490" width="150" height="140" as="geometry" />
        </mxCell>
        <mxCell id="h4zUDWaWfcr6ESv8l4KY-77" style="edgeStyle=orthogonalEdgeStyle;rounded=0;orthogonalLoop=1;jettySize=auto;html=1;entryX=1;entryY=1;entryDx=0;entryDy=0;" edge="1" parent="77e6c97f196da883-3" source="h4zUDWaWfcr6ESv8l4KY-75" target="h4zUDWaWfcr6ESv8l4KY-15">
          <mxGeometry relative="1" as="geometry" />
        </mxCell>
        <mxCell id="h4zUDWaWfcr6ESv8l4KY-75" value="update / delete" style="rhombus;whiteSpace=wrap;html=1;" vertex="1" parent="77e6c97f196da883-3">
          <mxGeometry x="510" y="1290" width="170" height="160" as="geometry" />
        </mxCell>
        <mxCell id="77e6c97f196da883-4" value="Admin" style="swimlane;html=1;startSize=20;" parent="77e6c97f196da883-1" vertex="1">
          <mxGeometry x="1170" y="20" width="830" height="2500" as="geometry" />
        </mxCell>
        <mxCell id="h4zUDWaWfcr6ESv8l4KY-70" style="edgeStyle=orthogonalEdgeStyle;rounded=0;orthogonalLoop=1;jettySize=auto;html=1;entryX=0.5;entryY=0;entryDx=0;entryDy=0;" edge="1" parent="77e6c97f196da883-4" source="h4zUDWaWfcr6ESv8l4KY-22" target="h4zUDWaWfcr6ESv8l4KY-25">
          <mxGeometry relative="1" as="geometry" />
        </mxCell>
        <mxCell id="h4zUDWaWfcr6ESv8l4KY-22" value="login" style="shape=parallelogram;perimeter=parallelogramPerimeter;whiteSpace=wrap;html=1;fixedSize=1;" vertex="1" parent="77e6c97f196da883-4">
          <mxGeometry x="285" y="245" width="210" height="110" as="geometry" />
        </mxCell>
        <mxCell id="h4zUDWaWfcr6ESv8l4KY-30" value="" style="edgeStyle=orthogonalEdgeStyle;rounded=0;orthogonalLoop=1;jettySize=auto;html=1;" edge="1" parent="77e6c97f196da883-4" source="h4zUDWaWfcr6ESv8l4KY-25" target="h4zUDWaWfcr6ESv8l4KY-28">
          <mxGeometry relative="1" as="geometry" />
        </mxCell>
        <mxCell id="h4zUDWaWfcr6ESv8l4KY-71" style="edgeStyle=orthogonalEdgeStyle;rounded=0;orthogonalLoop=1;jettySize=auto;html=1;entryX=1;entryY=0.5;entryDx=0;entryDy=0;" edge="1" parent="77e6c97f196da883-4" source="h4zUDWaWfcr6ESv8l4KY-25" target="h4zUDWaWfcr6ESv8l4KY-22">
          <mxGeometry relative="1" as="geometry">
            <Array as="points">
              <mxPoint x="650" y="465" />
              <mxPoint x="650" y="300" />
            </Array>
          </mxGeometry>
        </mxCell>
        <mxCell id="h4zUDWaWfcr6ESv8l4KY-25" value="proses" style="rhombus;whiteSpace=wrap;html=1;" vertex="1" parent="77e6c97f196da883-4">
          <mxGeometry x="325" y="410" width="130" height="110" as="geometry" />
        </mxCell>
        <mxCell id="h4zUDWaWfcr6ESv8l4KY-34" style="edgeStyle=orthogonalEdgeStyle;rounded=0;orthogonalLoop=1;jettySize=auto;html=1;" edge="1" parent="77e6c97f196da883-4" source="h4zUDWaWfcr6ESv8l4KY-28" target="h4zUDWaWfcr6ESv8l4KY-33">
          <mxGeometry relative="1" as="geometry" />
        </mxCell>
        <mxCell id="h4zUDWaWfcr6ESv8l4KY-28" value="data makanan" style="shape=parallelogram;perimeter=parallelogramPerimeter;whiteSpace=wrap;html=1;fixedSize=1;" vertex="1" parent="77e6c97f196da883-4">
          <mxGeometry x="300" y="610" width="180" height="90" as="geometry" />
        </mxCell>
        <mxCell id="h4zUDWaWfcr6ESv8l4KY-31" value="Berhasil" style="text;html=1;strokeColor=none;fillColor=none;align=center;verticalAlign=middle;whiteSpace=wrap;rounded=0;" vertex="1" parent="77e6c97f196da883-4">
          <mxGeometry x="395" y="580" width="60" height="30" as="geometry" />
        </mxCell>
        <mxCell id="h4zUDWaWfcr6ESv8l4KY-32" value="Gagal" style="text;html=1;strokeColor=none;fillColor=none;align=center;verticalAlign=middle;whiteSpace=wrap;rounded=0;" vertex="1" parent="77e6c97f196da883-4">
          <mxGeometry x="520" y="430" width="60" height="30" as="geometry" />
        </mxCell>
        <mxCell id="h4zUDWaWfcr6ESv8l4KY-37" style="edgeStyle=orthogonalEdgeStyle;rounded=0;orthogonalLoop=1;jettySize=auto;html=1;entryX=0.5;entryY=0;entryDx=0;entryDy=0;" edge="1" parent="77e6c97f196da883-4" source="h4zUDWaWfcr6ESv8l4KY-33" target="h4zUDWaWfcr6ESv8l4KY-36">
          <mxGeometry relative="1" as="geometry" />
        </mxCell>
        <mxCell id="h4zUDWaWfcr6ESv8l4KY-33" value="&lt;font style=&quot;font-size: 8px;&quot;&gt;melakukan penembahan data makanan&lt;/font&gt;" style="rhombus;whiteSpace=wrap;html=1;" vertex="1" parent="77e6c97f196da883-4">
          <mxGeometry x="325" y="760" width="130" height="130" as="geometry" />
        </mxCell>
        <mxCell id="h4zUDWaWfcr6ESv8l4KY-39" style="edgeStyle=orthogonalEdgeStyle;rounded=0;orthogonalLoop=1;jettySize=auto;html=1;" edge="1" parent="77e6c97f196da883-4" source="h4zUDWaWfcr6ESv8l4KY-36" target="h4zUDWaWfcr6ESv8l4KY-38">
          <mxGeometry relative="1" as="geometry" />
        </mxCell>
        <mxCell id="h4zUDWaWfcr6ESv8l4KY-79" value="" style="edgeStyle=orthogonalEdgeStyle;rounded=0;orthogonalLoop=1;jettySize=auto;html=1;" edge="1" parent="77e6c97f196da883-4" source="h4zUDWaWfcr6ESv8l4KY-36" target="h4zUDWaWfcr6ESv8l4KY-78">
          <mxGeometry relative="1" as="geometry" />
        </mxCell>
        <mxCell id="h4zUDWaWfcr6ESv8l4KY-36" value="data makanan" style="shape=parallelogram;perimeter=parallelogramPerimeter;whiteSpace=wrap;html=1;fixedSize=1;" vertex="1" parent="77e6c97f196da883-4">
          <mxGeometry x="315" y="950" width="150" height="100" as="geometry" />
        </mxCell>
        <mxCell id="h4zUDWaWfcr6ESv8l4KY-41" style="edgeStyle=orthogonalEdgeStyle;rounded=0;orthogonalLoop=1;jettySize=auto;html=1;entryX=0.5;entryY=0;entryDx=0;entryDy=0;" edge="1" parent="77e6c97f196da883-4" source="h4zUDWaWfcr6ESv8l4KY-38" target="h4zUDWaWfcr6ESv8l4KY-40">
          <mxGeometry relative="1" as="geometry" />
        </mxCell>
        <mxCell id="h4zUDWaWfcr6ESv8l4KY-38" value="view data penjualan" style="rhombus;whiteSpace=wrap;html=1;" vertex="1" parent="77e6c97f196da883-4">
          <mxGeometry x="325" y="1110" width="130" height="115" as="geometry" />
        </mxCell>
        <mxCell id="h4zUDWaWfcr6ESv8l4KY-50" style="edgeStyle=orthogonalEdgeStyle;rounded=0;orthogonalLoop=1;jettySize=auto;html=1;entryX=0.5;entryY=0;entryDx=0;entryDy=0;" edge="1" parent="77e6c97f196da883-4" source="h4zUDWaWfcr6ESv8l4KY-40" target="h4zUDWaWfcr6ESv8l4KY-49">
          <mxGeometry relative="1" as="geometry" />
        </mxCell>
        <mxCell id="h4zUDWaWfcr6ESv8l4KY-40" value="data penjualan" style="shape=parallelogram;perimeter=parallelogramPerimeter;whiteSpace=wrap;html=1;fixedSize=1;" vertex="1" parent="77e6c97f196da883-4">
          <mxGeometry x="315" y="1290" width="150" height="100" as="geometry" />
        </mxCell>
        <mxCell id="h4zUDWaWfcr6ESv8l4KY-49" value="admin logout" style="rhombus;whiteSpace=wrap;html=1;" vertex="1" parent="77e6c97f196da883-4">
          <mxGeometry x="325" y="1490" width="130" height="120" as="geometry" />
        </mxCell>
        <mxCell id="h4zUDWaWfcr6ESv8l4KY-80" style="edgeStyle=orthogonalEdgeStyle;rounded=0;orthogonalLoop=1;jettySize=auto;html=1;entryX=1;entryY=0.75;entryDx=0;entryDy=0;" edge="1" parent="77e6c97f196da883-4" source="h4zUDWaWfcr6ESv8l4KY-78" target="h4zUDWaWfcr6ESv8l4KY-36">
          <mxGeometry relative="1" as="geometry" />
        </mxCell>
        <mxCell id="h4zUDWaWfcr6ESv8l4KY-78" value="update / delete" style="rhombus;whiteSpace=wrap;html=1;" vertex="1" parent="77e6c97f196da883-4">
          <mxGeometry x="600" y="930" width="150" height="140" as="geometry" />
        </mxCell>
        <mxCell id="h4zUDWaWfcr6ESv8l4KY-72" style="edgeStyle=orthogonalEdgeStyle;rounded=0;orthogonalLoop=1;jettySize=auto;html=1;entryX=1;entryY=0.5;entryDx=0;entryDy=0;" edge="1" parent="77e6c97f196da883-1" source="h4zUDWaWfcr6ESv8l4KY-33" target="h4zUDWaWfcr6ESv8l4KY-7">
          <mxGeometry relative="1" as="geometry">
            <Array as="points">
              <mxPoint x="1000" y="845" />
              <mxPoint x="1000" y="600" />
            </Array>
          </mxGeometry>
        </mxCell>
        <mxCell id="h4zUDWaWfcr6ESv8l4KY-73" style="edgeStyle=orthogonalEdgeStyle;rounded=0;orthogonalLoop=1;jettySize=auto;html=1;entryX=0;entryY=0.5;entryDx=0;entryDy=0;" edge="1" parent="77e6c97f196da883-1" source="h4zUDWaWfcr6ESv8l4KY-13" target="h4zUDWaWfcr6ESv8l4KY-40">
          <mxGeometry relative="1" as="geometry">
            <Array as="points">
              <mxPoint x="1160" y="1198" />
              <mxPoint x="1160" y="1360" />
            </Array>
          </mxGeometry>
        </mxCell>
        <mxCell id="h4zUDWaWfcr6ESv8l4KY-74" style="edgeStyle=orthogonalEdgeStyle;rounded=0;orthogonalLoop=1;jettySize=auto;html=1;entryX=1;entryY=0.75;entryDx=0;entryDy=0;" edge="1" parent="77e6c97f196da883-1" source="h4zUDWaWfcr6ESv8l4KY-49" target="h4zUDWaWfcr6ESv8l4KY-47">
          <mxGeometry relative="1" as="geometry">
            <Array as="points">
              <mxPoint x="1310" y="1801" />
            </Array>
          </mxGeometry>
        </mxCell>
      </root>
    </mxGraphModel>
  </diagram>
</mxfile>
